<mxfile host="app.diagrams.net" agent="Mozilla/5.0 (Windows NT 10.0; Win64; x64) AppleWebKit/537.36 (KHTML, like Gecko) Chrome/138.0.0.0 Safari/537.36" version="27.1.6">
  <diagram name="Page-1" id="qWXn151V2KaRjYggtPc2">
    <mxGraphModel dx="1042" dy="1696" grid="1" gridSize="10" guides="1" tooltips="1" connect="1" arrows="1" fold="1" page="1" pageScale="1" pageWidth="850" pageHeight="1100" math="0" shadow="0">
      <root>
        <mxCell id="0" />
        <mxCell id="1" parent="0" />
        <mxCell id="YIqHqNub_Nqfjrc3F4KI-1" value="" style="rounded=0;whiteSpace=wrap;html=1;" vertex="1" parent="1">
          <mxGeometry x="120" y="-20" width="600" height="60" as="geometry" />
        </mxCell>
        <mxCell id="YIqHqNub_Nqfjrc3F4KI-2" value="" style="rounded=0;whiteSpace=wrap;html=1;" vertex="1" parent="1">
          <mxGeometry x="120" y="80" width="600" height="280" as="geometry" />
        </mxCell>
        <mxCell id="YIqHqNub_Nqfjrc3F4KI-3" value="" style="rounded=0;whiteSpace=wrap;html=1;" vertex="1" parent="1">
          <mxGeometry x="120" y="400" width="600" height="200" as="geometry" />
        </mxCell>
        <mxCell id="YIqHqNub_Nqfjrc3F4KI-4" value="" style="rounded=0;whiteSpace=wrap;html=1;" vertex="1" parent="1">
          <mxGeometry x="120" y="640" width="600" height="200" as="geometry" />
        </mxCell>
        <mxCell id="YIqHqNub_Nqfjrc3F4KI-5" value="" style="rounded=0;whiteSpace=wrap;html=1;" vertex="1" parent="1">
          <mxGeometry x="120" y="880" width="600" height="40" as="geometry" />
        </mxCell>
        <mxCell id="YIqHqNub_Nqfjrc3F4KI-6" value="ShopSmart" style="text;html=1;align=center;verticalAlign=middle;whiteSpace=wrap;rounded=0;" vertex="1" parent="1">
          <mxGeometry x="140" y="-5" width="60" height="30" as="geometry" />
        </mxCell>
        <mxCell id="YIqHqNub_Nqfjrc3F4KI-8" value="Home" style="text;html=1;align=center;verticalAlign=middle;whiteSpace=wrap;rounded=0;" vertex="1" parent="1">
          <mxGeometry x="520" y="-5" width="60" height="30" as="geometry" />
        </mxCell>
        <mxCell id="YIqHqNub_Nqfjrc3F4KI-9" value="Products" style="text;html=1;align=center;verticalAlign=middle;whiteSpace=wrap;rounded=0;" vertex="1" parent="1">
          <mxGeometry x="580" y="-5" width="60" height="30" as="geometry" />
        </mxCell>
        <mxCell id="YIqHqNub_Nqfjrc3F4KI-10" value="Cart" style="text;html=1;align=center;verticalAlign=middle;whiteSpace=wrap;rounded=0;" vertex="1" parent="1">
          <mxGeometry x="650" y="-5" width="60" height="30" as="geometry" />
        </mxCell>
        <mxCell id="YIqHqNub_Nqfjrc3F4KI-11" value="CTA" style="rounded=0;whiteSpace=wrap;html=1;" vertex="1" parent="1">
          <mxGeometry x="570" y="280" width="120" height="30" as="geometry" />
        </mxCell>
        <mxCell id="YIqHqNub_Nqfjrc3F4KI-12" value="Product Categories" style="text;html=1;align=center;verticalAlign=middle;whiteSpace=wrap;rounded=0;fontSize=20;" vertex="1" parent="1">
          <mxGeometry x="330" y="410" width="190" height="30" as="geometry" />
        </mxCell>
        <mxCell id="YIqHqNub_Nqfjrc3F4KI-13" value="" style="whiteSpace=wrap;html=1;aspect=fixed;" vertex="1" parent="1">
          <mxGeometry x="220" y="460" width="80" height="80" as="geometry" />
        </mxCell>
        <mxCell id="YIqHqNub_Nqfjrc3F4KI-14" value="" style="whiteSpace=wrap;html=1;aspect=fixed;" vertex="1" parent="1">
          <mxGeometry x="385" y="460" width="80" height="80" as="geometry" />
        </mxCell>
        <mxCell id="YIqHqNub_Nqfjrc3F4KI-15" value="" style="whiteSpace=wrap;html=1;aspect=fixed;" vertex="1" parent="1">
          <mxGeometry x="570" y="460" width="80" height="80" as="geometry" />
        </mxCell>
        <mxCell id="YIqHqNub_Nqfjrc3F4KI-16" value="Featured Products" style="text;html=1;align=center;verticalAlign=middle;whiteSpace=wrap;rounded=0;fontSize=20;" vertex="1" parent="1">
          <mxGeometry x="340" y="650" width="190" height="30" as="geometry" />
        </mxCell>
        <mxCell id="YIqHqNub_Nqfjrc3F4KI-18" value="" style="whiteSpace=wrap;html=1;aspect=fixed;" vertex="1" parent="1">
          <mxGeometry x="200" y="700" width="80" height="80" as="geometry" />
        </mxCell>
        <mxCell id="YIqHqNub_Nqfjrc3F4KI-19" value="" style="whiteSpace=wrap;html=1;aspect=fixed;" vertex="1" parent="1">
          <mxGeometry x="395" y="700" width="80" height="80" as="geometry" />
        </mxCell>
        <mxCell id="YIqHqNub_Nqfjrc3F4KI-20" value="" style="whiteSpace=wrap;html=1;aspect=fixed;" vertex="1" parent="1">
          <mxGeometry x="570" y="700" width="80" height="80" as="geometry" />
        </mxCell>
        <mxCell id="YIqHqNub_Nqfjrc3F4KI-21" value="Footer" style="text;html=1;align=center;verticalAlign=middle;whiteSpace=wrap;rounded=0;" vertex="1" parent="1">
          <mxGeometry x="405" y="885" width="60" height="30" as="geometry" />
        </mxCell>
        <mxCell id="YIqHqNub_Nqfjrc3F4KI-22" value="Shop With US" style="text;html=1;align=center;verticalAlign=middle;whiteSpace=wrap;rounded=0;fontSize=20;" vertex="1" parent="1">
          <mxGeometry x="325" y="110" width="190" height="30" as="geometry" />
        </mxCell>
      </root>
    </mxGraphModel>
  </diagram>
</mxfile>
